PathFileType  4	(X/Y/Z) C:\Users\antoi\Documents\MyRepositories\mobilecap\ResultsAnalysis
DataRate	CameraRate	NumFrames	NumMarkers	Units	OrigDataRate	OrigDataStartFrame	OrigNumFrames
100.0	100.0	4	51	mm	100.0	1	131
Frame#	Time	r_knee			r_shank_antsup			r_ankle			r_calc			r_5meta			r_toe			L_knee			L_shank_antsup			L_ankle			L_calc			L_5meta			L_toe			r_sh2			r_sh3			r_sh4			L_sh2			L_sh3			r_thigh1			r_thigh2			r_thigh3			r_thigh4			r_thigh5			L_thigh1			L_thigh2			L_thigh3			L_thigh4			r.ASIS			r.PSIS			L.ASIS			L.PSIS			C7			R_Shoulder			L_Shoulder			R_Sternum			L_Sternum			R_humerus			R_elbow_med			R_elbow_lat			R_forearm			R_wrist_radius			R_wrist_ulna			L_humerus			L_elbow_med			L_elbow_lat			L_forearm			L_wrist_radius			L_wrist_ulna			R_HJC			L_HJC			R_HJC_reg			L_HJC_reg			
		X1	Y1	Z1	X2	Y2	Z2	X3	Y3	Z3	X4	Y4	Z4	X5	Y5	Z5	X6	Y6	Z6	X7	Y7	Z7	X8	Y8	Z8	X9	Y9	Z9	X10	Y10	Z10	X11	Y11	Z11	X12	Y12	Z12	X13	Y13	Z13	X14	Y14	Z14	X15	Y15	Z15	X16	Y16	Z16	X17	Y17	Z17	X18	Y18	Z18	X19	Y19	Z19	X20	Y20	Z20	X21	Y21	Z21	X22	Y22	Z22	X23	Y23	Z23	X24	Y24	Z24	X25	Y25	Z25	X26	Y26	Z26	X27	Y27	Z27	X28	Y28	Z28	X29	Y29	Z29	X30	Y30	Z30	X31	Y31	Z31	X32	Y32	Z32	X33	Y33	Z33	X34	Y34	Z34	X35	Y35	Z35	X36	Y36	Z36	X37	Y37	Z37	X38	Y38	Z38	X39	Y39	Z39	X40	Y40	Z40	X41	Y41	Z41	X42	Y42	Z42	X43	Y43	Z43	X44	Y44	Z44	X45	Y45	Z45	X46	Y46	Z46	X47	Y47	Z47	X48	Y48	Z48	X49	Y49	Z49	X50	Y50	Z50	X51	Y51	Z51	

1	0.00000000	-39.28428	474.80567	-81.91743	16.79994	437.97407	-86.17302	108.24872	109.18161	-89.96427	70.68134	59.34584	-134.33048	229.14393	112.28368	-74.66041	250.36345	157.38597	-125.24663	-301.89250	466.36481	-332.88703	-287.92244	376.42707	-315.02713	-432.82308	104.22174	-300.06790	-495.67401	73.83919	-260.80615	-337.04704	41.43311	-331.16957	-287.75485	49.97409	-274.84773	50.82215	330.66117	-74.53402	-51.51984	420.24051	-54.16294	-26.68010	305.80329	-50.20509	-358.65415	412.29638	-359.57052	-399.69805	296.91834	-361.95674	-85.04530	718.42243	-41.70205	-45.93775	614.00211	-56.05522	-96.24160	568.76293	-52.97535	-191.90076	676.29239	-46.15061	-148.69126	569.84105	-74.44069	-181.14564	718.54716	-401.47702	-212.71336	588.19696	-362.77783	-289.82409	737.78536	-407.45782	-323.22816	621.37233	-347.08473	-98.99615	912.74170	-116.91858	-314.74339	931.74548	-182.01147	-105.52724	905.26498	-339.46491	-314.46419	935.50575	-261.38761	-218.24173	1381.69402	-221.00463	-186.07044	1346.50233	-74.77364	-165.28145	1356.23729	-351.50850	-95.79120	1312.51998	-186.53626	-94.92137	1313.67435	-227.66298	-196.41655	1235.48950	-7.40418	-317.55081	1049.77038	-34.08597	-295.03579	1057.92286	27.33651	-254.54051	978.79066	60.82848	-246.80611	834.74799	79.84696	-280.77114	840.16216	97.02452	-137.18685	1265.46820	-427.39540	-147.70182	1035.78235	-444.44537	-114.72986	1071.90917	-493.95987	-18.46610	1022.19781	-484.32740	75.59095	935.95541	-463.08536	56.90017	916.26172	-496.60548	-179.45396	822.39075	-117.63538	-187.69648	819.97263	-324.96506	-169.31485	832.24784	-151.15932	-168.79831	839.20488	-298.02023	
2	0.01000000	-26.89616	472.80098	-82.67212	28.51112	435.10821	-85.79538	119.39989	106.70431	-91.68481	82.96171	56.68602	-137.25660	240.35312	109.92479	-74.65202	261.97149	155.48430	-124.50827	-292.93346	465.76299	-332.56769	-280.50049	375.56661	-314.87059	-431.29413	106.10822	-300.31964	-494.66911	76.75204	-260.90892	-336.90425	41.40422	-331.21593	-287.14724	49.60734	-275.03032	61.92943	327.55990	-74.61941	-40.35601	417.19971	-55.49484	-15.79971	302.69160	-52.48827	-350.41722	412.95110	-359.14596	-393.94050	298.47911	-361.84463	-71.61274	716.80917	-41.98264	-32.69983	612.36443	-56.93091	-82.93497	567.25717	-53.37129	-178.40990	674.74039	-46.30296	-135.42417	568.13102	-74.84774	-170.35348	717.10640	-401.05757	-202.74131	586.81654	-362.56521	-278.63930	737.09507	-406.28127	-312.89992	620.64506	-346.03918	-85.38217	910.22661	-116.57909	-301.36836	929.98816	-180.21892	-92.73978	902.98970	-339.19811	-301.35868	933.93025	-259.65382	-205.74842	1379.83192	-220.03210	-173.89503	1344.45705	-73.81061	-152.98956	1354.52549	-350.66820	-83.29346	1310.84045	-185.53158	-82.32645	1312.06147	-226.82712	-184.66040	1233.45233	-6.58244	-306.01836	1047.87688	-33.99506	-283.96903	1056.19319	27.62740	-244.61795	977.00836	61.78439	-238.35303	833.09900	81.58701	-272.63609	838.90531	98.38427	-125.06572	1263.87727	-426.76710	-134.45576	1034.00889	-443.90818	-101.77211	1070.41998	-493.40391	-5.19349	1021.40306	-484.56836	89.47357	936.66042	-461.50483	71.69493	916.88712	-495.19914	-165.98439	820.11617	-116.89669	-175.37188	818.01082	-324.17467	-156.09694	829.85106	-150.76129	-156.07859	837.14173	-297.66720	
3	0.02000000	-14.26624	470.85430	-83.42511	40.35555	432.17195	-85.54329	129.66312	103.99957	-93.46201	94.04400	54.03919	-140.05058	250.65655	106.97730	-74.91153	272.79241	152.81872	-124.18193	-283.64960	465.11352	-332.28163	-272.81971	374.66038	-314.75949	-429.62921	108.10374	-300.64197	-493.54414	79.85428	-261.08271	-336.68840	41.37834	-331.29614	-286.53247	49.21455	-275.22945	72.85941	324.32117	-74.87145	-29.05793	414.33486	-56.83874	-5.16054	299.70581	-54.73608	-341.87907	413.61974	-358.75904	-387.96920	300.12446	-361.76604	-58.08752	715.27095	-42.23061	-19.26529	610.82780	-57.68916	-69.42783	565.82207	-53.72025	-164.79233	673.21555	-46.38037	-121.94673	566.46499	-75.19691	-159.36516	715.67965	-400.59492	-192.50248	585.45552	-362.33749	-267.32931	736.40555	-405.08832	-302.30730	619.87156	-344.98342	-71.71974	907.83385	-116.20554	-287.91842	928.30274	-178.45573	-79.87283	900.79452	-338.89064	-288.15565	932.36109	-257.94501	-193.19371	1378.01942	-219.01187	-161.62790	1342.47538	-72.80326	-140.62264	1352.86214	-349.76234	-70.72114	1309.19615	-184.48375	-69.65753	1310.48369	-225.92906	-172.77590	1231.46580	-5.72133	-294.31698	1046.02184	-33.89450	-272.76683	1054.50840	27.93749	-234.49148	975.25328	62.72211	-229.66590	831.45896	83.25534	-264.23713	837.64640	99.68035	-112.88547	1262.32444	-426.07479	-121.34002	1032.28162	-443.30136	-88.93587	1068.95045	-492.80929	7.94281	1020.61734	-484.66613	103.23008	937.29031	-459.96226	86.24810	917.41284	-493.79903	-152.43537	817.94792	-116.12089	-162.92118	816.09874	-323.34746	-142.82967	827.62069	-150.28410	-143.26779	835.12430	-297.23696	
4	0.03000000	-1.26443	468.99995	-84.16256	52.41840	429.13754	-85.51725	138.45787	100.94086	-95.31704	103.10420	51.48180	-142.59168	259.44730	103.03894	-75.66079	282.29997	148.85148	-124.59285	-273.77947	464.38657	-332.05996	-264.66519	373.67753	-314.73725	-427.70963	110.30064	-301.09661	-492.19462	83.31189	-261.38346	-336.34308	41.35375	-331.43454	-285.89762	48.76645	-275.46088	83.49272	320.87776	-75.41075	-17.53264	411.77829	-58.17778	5.08843	296.94715	-56.89300	-332.79036	414.31422	-358.44635	-381.60671	301.92562	-361.74903	-44.39701	713.85312	-42.39192	-5.52201	609.44522	-58.22842	-55.61304	564.50162	-53.98325	-150.97008	671.74739	-46.31724	-108.14143	564.88603	-75.44524	-148.01488	714.28254	-400.06295	-181.78144	584.13162	-362.08709	-255.77684	735.72022	-403.86817	-291.23774	619.02697	-343.91656	-57.95463	905.67218	-115.76247	-274.33284	926.74484	-176.75192	-66.85033	898.74762	-338.50957	-274.77891	930.80832	-256.28799	-180.52699	1376.30092	-217.90181	-149.18651	1340.60973	-71.71131	-128.12332	1351.28823	-348.73790	-58.00860	1307.61527	-183.35563	-56.85563	1308.97351	-224.91910	-160.65678	1229.57273	-4.78525	-282.30384	1044.23513	-33.77532	-261.30396	1052.89611	28.28095	-223.98827	973.54813	63.62820	-220.54026	829.83574	84.79130	-255.34649	836.38275	100.85897	-100.59962	1260.84191	-425.26508	-108.46356	1030.64151	-442.57204	-76.32267	1067.51970	-492.14211	20.83131	1019.83947	-484.51423	116.73832	937.77379	-458.48624	100.36256	917.75192	-492.41097	-138.73561	815.97887	-115.27670	-150.23038	814.27928	-322.45285	-129.45348	825.68224	-149.66228	-130.27781	833.19428	-296.67029	
